<?xml version="1.0" encoding="utf-8"?>
<!-- Generator: Adobe Illustrator 23.0.0, SVG Export Plug-In . SVG Version: 6.00 Build 0)  -->
<svg version="1.1" id="Camada_1" xmlns="http://www.w3.org/2000/svg" xmlns:xlink="http://www.w3.org/1999/xlink" x="0px" y="0px"
	 viewBox="0 0 2000 2000" style="enable-background:new 0 0 2000 2000;" xml:space="preserve">
<style type="text/css">
	.st0{fill:#333333;}
	.st1{fill:none;}
	.st2{fill:#00A856;}
</style>
<path class="st0" d="M1000,2000L1000,2000C447.7,2000,0,1552.3,0,1000v0C0,447.7,447.7,0,1000,0h0c552.3,0,1000,447.7,1000,1000v0
	C2000,1552.3,1552.3,2000,1000,2000z"/>
<g>
	<g>
		<path class="st1" d="M1240.7,680.5c-27.8,16-49.3,38.7-64.5,68.2c-15.2,29.5-22.9,63.5-22.9,102v321.7c0,34,7.8,64,23.2,90
			c15.5,26,37.5,46,66,60c19.7,9.7,41.6,16,65.7,19V658.3C1283.4,661.5,1260.9,668.9,1240.7,680.5z"/>
		<path class="st1" d="M1438.7,1320.6c27.8-15.2,49.1-37.4,64.1-66.4c15-29,22.5-63.2,22.5-102.7v-18h-154.8v208.3
			C1395.7,1338.8,1418.4,1331.8,1438.7,1320.6z"/>
		<path class="st2" d="M1370.5,935.5v198h154.8v18c0,39.5-7.5,73.8-22.5,102.7c-15,29-36.4,51.1-64.1,66.4
			c-20.2,11.2-43,18.2-68.2,21.2v213.9c67.2-3.7,127.1-20.3,179.6-49.8c60-33.7,106.4-81.5,139.1-143.2
			c32.7-61.7,49.1-133.1,49.1-214.1v-213v0H1370.5z"/>
		<path class="st2" d="M1409.5,669.7c23.2,8.8,43.5,21.5,60.7,38.2c17.2,16.8,29.6,36.6,37.1,59.6h222
			c-13-64.5-37.9-121.3-74.6-170.3c-36.7-49-82.6-86.9-137.6-113.6c-45.5-22.1-94.3-35.1-146.6-38.9v214.5
			C1383.8,661.4,1396.8,664.9,1409.5,669.7z"/>
		<path class="st2" d="M1242.6,1322.5c-28.5-14-50.5-34-66-60c-15.5-26-23.2-56-23.2-90V850.8c0-38.5,7.6-72.5,22.9-102
			c15.2-29.5,36.7-52.2,64.5-68.2c20.2-11.6,42.7-19,67.5-22.2v-214c-67.2,3.7-127.1,20.3-179.6,49.8
			c-60,33.8-106.4,81.4-139.1,142.9c-32.8,61.5-49.1,132.7-49.1,213.7v321.7c0,76.5,16.6,143.8,49.9,201.7
			c33.3,58,80.2,102.9,141,134.6c52.1,27.2,111.1,42.8,177,46.6v-214C1284.2,1338.5,1262.3,1332.2,1242.6,1322.5z"/>
	</g>
	<g>
		<polygon class="st2" points="467.1,1347.2 467.1,1102.7 335.9,1102.7 335.9,904.7 467.1,904.7 467.1,652.8 335.9,652.8 
			335.9,454.8 261.6,454.8 261.6,1545.2 335.9,1545.2 335.9,1347.2 		"/>
		<rect x="335.9" y="454.8" class="st2" width="131.2" height="198"/>
		<rect x="335.9" y="1347.2" class="st2" width="131.2" height="198"/>
		<rect x="335.9" y="904.7" class="st2" width="131.2" height="198"/>
		<rect x="529.4" y="454.8" class="st2" width="205.5" height="198"/>
		<rect x="335.9" y="1545.2" class="st2" width="131.2" height="0"/>
		<rect x="529.4" y="1347.2" class="st2" width="205.5" height="198"/>
		<rect x="529.4" y="904.7" class="st2" width="205.5" height="198"/>
	</g>
</g>
</svg>
