<?xml version="1.0" encoding="utf-8"?>
<!-- Generator: Adobe Illustrator 23.0.0, SVG Export Plug-In . SVG Version: 6.00 Build 0)  -->
<svg version="1.1" id="Camada_1" xmlns="http://www.w3.org/2000/svg" xmlns:xlink="http://www.w3.org/1999/xlink" x="0px" y="0px"
	 viewBox="0 0 2222 2276.37" style="enable-background:new 0 0 2222 2276.37;" xml:space="preserve">
<style type="text/css">
	.st0{fill:#5C8DBC;}
	.st1{fill:#1A4674;}
	.st2{fill:#1B598E;}
	.st3{fill:#FFFFFF;}
</style>
<g>
	<path class="st0" d="M2114.56,673.43c-0.02-37.93-8.13-71.46-24.54-100.22c-16.12-28.29-40.25-52-72.63-70.75
		c-267.23-154.09-534.72-307.7-801.87-461.95c-72.02-41.58-141.85-40.06-213.34,2.11c-106.37,62.73-638.9,367.83-797.59,459.75
		c-65.35,37.83-97.15,95.73-97.17,170.99c-0.1,309.88,0,619.75-0.1,929.64c0.02,37.1,7.78,69.97,23.47,98.31
		c16.12,29.15,40.6,53.51,73.72,72.68c158.7,91.92,691.31,396.99,797.65,459.74c71.52,42.2,141.35,43.71,213.39,2.11
		c267.15-154.25,534.66-307.86,801.93-461.95c33.12-19.16,57.59-43.54,73.72-72.66c15.66-28.34,23.44-61.21,23.46-98.32
		C2114.67,1602.91,2114.67,983.32,2114.56,673.43"/>
	<path class="st1" d="M1114.07,1135.16L130.8,1701.31c16.12,29.15,40.6,53.51,73.72,72.68c158.7,91.92,691.31,396.99,797.65,459.74
		c71.52,42.2,141.35,43.71,213.39,2.11c267.15-154.25,534.66-307.86,801.93-461.95c33.12-19.16,57.59-43.54,73.72-72.66
		L1114.07,1135.16"/>
	<path class="st1" d="M822.84,1302.86c57.22,99.89,164.78,167.26,288.16,167.26c124.15,0,232.32-68.23,289.25-169.18l-286.18-165.77
		L822.84,1302.86"/>
	<path class="st2" d="M2114.56,673.43c-0.02-37.93-8.13-71.46-24.54-100.22l-975.96,561.95l977.14,566.07
		c15.66-28.34,23.44-61.21,23.46-98.32C2114.67,1602.91,2114.67,983.32,2114.56,673.43"/>
	<path class="st3" d="M2060.84,1175.63h-76.36V1252h-76.37v-76.37h-76.35v-76.35h76.35v-76.36h76.37v76.36h76.36V1175.63
		 M1782.22,1175.63h-76.35V1252h-76.36v-76.37h-76.36v-76.35h76.36v-76.36h76.36v76.36h76.35V1175.63"/>
	<path class="st3" d="M1400.25,1300.94c-56.93,100.95-165.1,169.18-289.25,169.18c-123.39,0-230.95-67.37-288.16-167.26
		c-28.74-50.12-43.84-106.9-43.78-164.68c0-183.32,148.62-331.93,331.94-331.93c122.59,0,229.59,66.53,287.09,165.4l290.13-167.07
		C1572.9,605.51,1357.6,471.58,1111,471.58c-368.16,0-666.61,298.45-666.61,666.6c0,120.78,32.13,234.04,88.29,331.74
		c115.03,200.12,330.94,334.87,578.32,334.87c247.83,0,464.08-135.29,578.95-336L1400.25,1300.94"/>
</g>
</svg>
