<?xml version="1.0" encoding="utf-8"?>
<!-- Generator: Adobe Illustrator 23.0.0, SVG Export Plug-In . SVG Version: 6.00 Build 0)  -->
<svg version="1.1" id="Camada_1" xmlns="http://www.w3.org/2000/svg" xmlns:xlink="http://www.w3.org/1999/xlink" x="0px" y="0px"
	 viewBox="0 0 2256.1 2256.1" style="enable-background:new 0 0 2256.1 2256.1;" xml:space="preserve">
<style type="text/css">
	.st0{fill:#5C8DBC;}
	.st1{fill:#1A4674;}
	.st2{fill:#1B598E;}
	.st3{fill:#FFFFFF;}
</style>
<g>
	<path class="st0" d="M2131.6,663.3c0-37.9-8.1-71.5-24.5-100.2c-16.1-28.3-40.3-52-72.6-70.8c-267.2-154.1-534.7-307.7-801.9-462
		c-72-41.6-141.8-40.1-213.3,2.1C912.9,95.2,380.3,400.3,221.6,492.2c-65.4,37.8-97.1,95.7-97.2,171c-0.1,309.9,0,619.7-0.1,929.6
		c0,37.1,7.8,70,23.5,98.3c16.1,29.2,40.6,53.5,73.7,72.7c158.7,91.9,691.3,397,797.7,459.7c71.5,42.2,141.4,43.7,213.4,2.1
		c267.2-154.3,534.7-307.9,801.9-461.9c33.1-19.2,57.6-43.5,73.7-72.7c15.7-28.3,23.4-61.2,23.5-98.3
		C2131.7,1592.8,2131.7,973.2,2131.6,663.3"/>
	<path class="st1" d="M1131.1,1125l-983.3,566.2c16.1,29.2,40.6,53.5,73.7,72.7c158.7,91.9,691.3,397,797.7,459.7
		c71.5,42.2,141.4,43.7,213.4,2.1c267.2-154.3,534.7-307.9,801.9-461.9c33.1-19.2,57.6-43.5,73.7-72.7L1131.1,1125"/>
	<path class="st1" d="M839.9,1292.7c57.2,99.9,164.8,167.3,288.2,167.3c124.2,0,232.3-68.2,289.3-169.2L1131.1,1125L839.9,1292.7"/>
	<path class="st2" d="M2131.6,663.3c0-37.9-8.1-71.5-24.5-100.2l-976,561.9l977.1,566.1c15.7-28.3,23.4-61.2,23.5-98.3
		C2131.7,1592.8,2131.7,973.2,2131.6,663.3"/>
	<path class="st3" d="M2077.9,1165.5h-76.4v76.4h-76.4v-76.4h-76.3v-76.3h76.3v-76.4h76.4v76.4h76.4V1165.5 M1799.3,1165.5h-76.3
		v76.4h-76.4v-76.4h-76.4v-76.3h76.4v-76.4h76.4v76.4h76.3V1165.5"/>
	<path class="st3" d="M1417.3,1290.8c-56.9,100.9-165.1,169.2-289.3,169.2c-123.4,0-231-67.4-288.2-167.3
		c-28.7-50.1-43.8-106.9-43.8-164.7c0-183.3,148.6-331.9,331.9-331.9c122.6,0,229.6,66.5,287.1,165.4l290.1-167.1
		c-115.3-199.1-330.6-333-577.2-333c-368.2,0-666.6,298.5-666.6,666.6c0,120.8,32.1,234,88.3,331.7
		c115,200.1,330.9,334.9,578.3,334.9c247.8,0,464.1-135.3,578.9-336L1417.3,1290.8"/>
</g>
</svg>
