<?xml version="1.0" encoding="utf-8"?>
<!-- Generator: Adobe Illustrator 23.0.0, SVG Export Plug-In . SVG Version: 6.00 Build 0)  -->
<svg version="1.1" id="Camada_1" xmlns="http://www.w3.org/2000/svg" xmlns:xlink="http://www.w3.org/1999/xlink" x="0px" y="0px"
	 viewBox="0 0 2222 2208.7" style="enable-background:new 0 0 2222 2208.7;" xml:space="preserve">
<style type="text/css">
	.st0{fill:#A9B9CB;}
	.st1{fill:#7F8B99;}
	.st2{fill:#FFFFFF;}
</style>
<g>
	<path class="st0" d="M2071.19,659.26c-0.02-36.33-7.78-68.44-23.47-95.98c-15.42-27.1-38.52-49.8-69.49-67.76
		c-255.68-147.57-511.61-294.69-767.21-442.41c-68.91-39.81-135.72-38.37-204.12,2.03c-101.77,60.08-611.29,352.27-763.12,440.3
		c-62.52,36.24-92.95,91.68-92.97,163.76c-0.1,296.77,0,593.53-0.1,890.31c0.01,35.53,7.45,67.01,22.45,94.15
		c15.42,27.91,38.84,51.24,70.53,69.61c151.84,88.02,661.43,380.2,763.17,440.29c68.43,40.41,135.24,41.85,204.17,2.03
		c255.6-147.73,511.55-294.84,767.27-442.41c31.69-18.36,55.1-41.7,70.53-69.59c14.98-27.14,22.43-58.62,22.45-94.16
		C2071.29,1549.42,2071.29,956.04,2071.19,659.26"/>
	<path class="st1" d="M1209.29,55.04c-68.8-39.72-135.5-38.27-203.78,2.02c-101.6,59.92-610.29,351.36-761.87,439.16
		c-62.43,36.14-92.8,91.44-92.82,163.33c-0.1,296,0,591.99-0.1,888c0.01,35.44,7.43,66.84,22.42,93.91
		c15.4,27.84,38.78,51.11,70.42,69.43c50.37,29.12,100.79,58.18,151.24,87.18L1798.39,394.45
		C1602,281.36,1405.55,168.36,1209.29,55.04"/>
	<path class="st2" d="M1309.48,969.07l298.88,2.11c0-124.53-126.05-429.5-487.44-429.5c-230.25,0-539.79,146.38-539.79,567.24
		c0,420.85,303.44,558.09,539.79,558.09c382.74,0,474.22-264.84,474.22-414.51L1310,1236.2c0,0,7.63,173.11-190.6,173.11
		c-182.98,0-213.51-224.15-213.51-300.39c0-115.89,41.21-301.92,213.51-301.92C1291.71,807,1309.48,969.07,1309.48,969.07"/>
</g>
</svg>
