<?xml version="1.0" encoding="utf-8"?>
<!-- Generator: Adobe Illustrator 23.0.0, SVG Export Plug-In . SVG Version: 6.00 Build 0)  -->
<svg version="1.1" id="Camada_1" xmlns="http://www.w3.org/2000/svg" xmlns:xlink="http://www.w3.org/1999/xlink" x="0px" y="0px"
	 viewBox="0 0 2158.6 2158.6" style="enable-background:new 0 0 2158.6 2158.6;" xml:space="preserve">
<style type="text/css">
	.st0{fill:#A9B9CB;}
	.st1{fill:#7F8B99;}
	.st2{fill:#FFFFFF;}
</style>
<g>
	<path class="st0" d="M2039.5,634.2c0-36.3-7.8-68.4-23.5-96c-15.4-27.1-38.5-49.8-69.5-67.8c-255.7-147.6-511.6-294.7-767.2-442.4
		c-68.9-39.8-135.7-38.4-204.1,2C873.4,90.2,363.9,382.4,212.1,470.4c-62.5,36.2-92.9,91.7-93,163.8c-0.1,296.8,0,593.5-0.1,890.3
		c0,35.5,7.4,67,22.4,94.2c15.4,27.9,38.8,51.2,70.5,69.6c151.8,88,661.4,380.2,763.2,440.3c68.4,40.4,135.2,41.9,204.2,2
		c255.6-147.7,511.6-294.8,767.3-442.4c31.7-18.4,55.1-41.7,70.5-69.6c15-27.1,22.4-58.6,22.4-94.2
		C2039.6,1524.4,2039.6,931,2039.5,634.2"/>
	<path class="st1" d="M1177.6,30c-68.8-39.7-135.5-38.3-203.8,2C872.2,91.9,363.5,383.4,212,471.2c-62.4,36.1-92.8,91.4-92.8,163.3
		c-0.1,296,0,592-0.1,888c0,35.4,7.4,66.8,22.4,93.9c15.4,27.8,38.8,51.1,70.4,69.4c50.4,29.1,100.8,58.2,151.2,87.2L1766.7,369.4
		C1570.3,256.3,1373.9,143.3,1177.6,30"/>
	<path class="st2" d="M1277.8,944l298.9,2.1c0-124.5-126.1-429.5-487.4-429.5c-230.3,0-539.8,146.4-539.8,567.2
		c0,420.8,303.4,558.1,539.8,558.1c382.7,0,474.2-264.8,474.2-414.5l-285.1-16.3c0,0,7.6,173.1-190.6,173.1
		c-183,0-213.5-224.2-213.5-300.4c0-115.9,41.2-301.9,213.5-301.9C1260,782,1277.8,944,1277.8,944"/>
</g>
</svg>
