<?xml version="1.0" encoding="utf-8"?>
<!-- Generator: Adobe Illustrator 23.0.0, SVG Export Plug-In . SVG Version: 6.00 Build 0)  -->
<svg version="1.1" id="Camada_1" xmlns="http://www.w3.org/2000/svg" xmlns:xlink="http://www.w3.org/1999/xlink" x="0px" y="0px"
	 viewBox="0 0 2000 2000" style="enable-background:new 0 0 2000 2000;" xml:space="preserve">
<style type="text/css">
	.st0{fill-rule:evenodd;clip-rule:evenodd;fill:#FFFFFF;}
	.st1{fill:#FFFFFF;}
</style>
<g>
	<path class="st0" d="M1000,24.69c-552.21,0-1000,447.69-1000,1000c0,441.82,286.53,816.66,683.86,948.9
		c49.97,9.25,68.33-21.7,68.33-48.11c0-23.84-0.92-102.62-1.36-186.18c-278.2,60.5-336.9-117.99-336.9-117.99
		c-45.49-115.58-111.03-146.32-111.03-146.32c-90.74-62.07,6.84-60.79,6.84-60.79c100.41,7.05,153.29,103.06,153.29,103.06
		c89.19,152.87,233.94,108.67,291.01,83.12c8.98-64.62,34.88-108.75,63.49-133.72c-222.12-25.28-455.62-111.03-455.62-494.2
		c0-109.17,39.07-198.38,103.05-268.41c-10.38-25.2-44.62-126.9,9.69-264.65c0,0,83.98-26.86,275.06,102.52
		c79.77-22.16,165.32-33.27,250.3-33.66c84.98,0.39,170.59,11.5,250.51,33.66c190.87-129.38,274.72-102.52,274.72-102.52
		c54.43,137.75,20.2,239.45,9.82,264.65c64.12,70.03,102.92,159.24,102.92,268.41c0,384.09-233.94,468.65-456.62,493.41
		c35.87,31.03,67.82,91.89,67.82,185.18c0,133.8-1.15,241.49-1.15,274.43c0,26.62,18,57.8,68.68,47.98
		c397.13-132.38,683.3-507.09,683.3-948.77C2000,472.38,1552.27,24.69,1000,24.69z"/>
	<path class="st1" d="M378.75,1460.47c-2.2,4.98-10.03,6.47-17.14,3.06c-7.26-3.27-11.32-10.04-8.98-15.02
		c2.15-5.11,9.98-6.53,17.22-3.12C377.12,1448.64,381.26,1455.48,378.75,1460.47L378.75,1460.47z M366.45,1451.34"/>
	<path class="st1" d="M419.26,1505.65c-4.77,4.41-14.1,2.36-20.42-4.63c-6.55-6.97-7.76-16.3-2.93-20.78
		c4.92-4.41,13.96-2.34,20.51,4.63C422.97,1491.92,424.25,1501.17,419.26,1505.65L419.26,1505.65z M409.72,1495.41"/>
	<path class="st1" d="M458.69,1563.24c-6.13,4.27-16.16,0.27-22.35-8.62c-6.13-8.89-6.13-19.57,0.14-23.84
		c6.19-4.27,16.07-0.42,22.35,8.39C464.95,1548.21,464.95,1558.89,458.69,1563.24L458.69,1563.24z M458.69,1563.24"/>
	<path class="st1" d="M512.7,1618.88c-5.48,6.05-17.16,4.41-25.7-3.83c-8.75-8.05-11.17-19.5-5.69-25.55
		c5.56-6.05,17.3-4.35,25.91,3.83C515.9,1601.38,518.54,1612.9,512.7,1618.88L512.7,1618.88z M512.7,1618.88"/>
	<path class="st1" d="M587.22,1651.19c-2.43,7.83-13.66,11.38-24.99,8.05c-11.32-3.43-18.71-12.6-16.43-20.51
		c2.34-7.89,13.65-11.6,25.05-8.04C582.16,1634.12,589.57,1643.22,587.22,1651.19L587.22,1651.19z M587.22,1651.19"/>
	<path class="st1" d="M669.07,1657.18c0.27,8.25-9.33,15.09-21.22,15.23c-11.95,0.27-21.64-6.4-21.77-14.52
		c0-8.33,9.39-15.09,21.35-15.3C659.31,1642.36,669.07,1648.99,669.07,1657.18L669.07,1657.18z M669.07,1657.18"/>
	<path class="st1" d="M745.22,1644.22c1.42,8.04-6.84,16.3-18.65,18.5c-11.61,2.13-22.35-2.84-23.84-10.82
		c-1.44-8.25,6.97-16.51,18.57-18.65C733.12,1631.2,743.71,1636.04,745.22,1644.22L745.22,1644.22z M745.22,1644.22"/>
</g>
</svg>
