<?xml version="1.0" encoding="utf-8"?>
<!-- Generator: Adobe Illustrator 23.0.0, SVG Export Plug-In . SVG Version: 6.00 Build 0)  -->
<svg version="1.1" id="Layer_1" xmlns="http://www.w3.org/2000/svg" xmlns:xlink="http://www.w3.org/1999/xlink" x="0px" y="0px"
	 viewBox="0 0 600 600" style="enable-background:new 0 0 600 600;" xml:space="preserve">
<style type="text/css">
	.st0{fill:#679E63;}
	.st1{fill-rule:evenodd;clip-rule:evenodd;fill:#FFFFFF;}
	.st2{fill-rule:evenodd;clip-rule:evenodd;fill:#679E63;}
	.st3{clip-path:url(#XMLID_3_);}
	.st4{fill:none;}
	.st5{fill:url(#SVGID_1_);}
	.st6{fill:url(#SVGID_2_);}
	.st7{fill:url(#SVGID_3_);}
	.st8{fill:url(#SVGID_4_);}
	.st9{fill:url(#SVGID_5_);}
	.st10{fill:url(#SVGID_6_);}
</style>
<g>
	<g>
		<path class="st0" d="M296.65,478.64c-1.92,0-3.84-0.5-5.53-1.48l-17.59-10.41c-2.63-1.47-1.34-1.99-0.48-2.29
			c3.5-1.22,4.21-1.5,7.95-3.62c0.39-0.22,0.91-0.14,1.31,0.1l13.51,8.02c0.49,0.27,1.18,0.27,1.63,0l52.68-30.41
			c0.49-0.28,0.8-0.84,0.8-1.43v-60.8c0-0.59-0.31-1.15-0.82-1.45l-52.66-30.38c-0.49-0.28-1.13-0.28-1.62,0l-52.65,30.39
			c-0.51,0.29-0.84,0.87-0.84,1.44v60.8c0,0.58,0.32,1.13,0.83,1.41l14.43,8.34c7.83,3.92,12.62-0.7,12.62-5.33v-60.03
			c0-0.85,0.68-1.52,1.53-1.52h6.68c0.84,0,1.53,0.67,1.53,1.52v60.03c0,10.45-5.69,16.44-15.6,16.44c-3.04,0-5.44,0-12.14-3.3
			l-13.81-7.95c-3.41-1.97-5.53-5.66-5.53-9.61v-60.8c0-3.95,2.11-7.64,5.53-9.6l52.68-30.44c3.33-1.89,7.76-1.89,11.07,0
			l52.68,30.44c3.41,1.97,5.53,5.65,5.53,9.6v60.8c0,3.95-2.12,7.62-5.53,9.61l-52.68,30.42
			C300.52,478.14,298.6,478.64,296.65,478.64z"/>
		<path class="st0" d="M312.93,436.75c-23.05,0-27.88-10.58-27.88-19.46c0-0.84,0.68-1.52,1.52-1.52h6.81c0.76,0,1.4,0.55,1.51,1.29
			c1.03,6.93,4.09,10.43,18.04,10.43c11.1,0,15.82-2.51,15.82-8.4c0-3.39-1.34-5.91-18.59-7.6c-14.41-1.43-23.33-4.61-23.33-16.14
			c0-10.63,8.96-16.97,23.98-16.97c16.88,0,25.23,5.86,26.29,18.43c0.04,0.43-0.11,0.85-0.4,1.17c-0.29,0.3-0.69,0.49-1.12,0.49
			h-6.84c-0.71,0-1.33-0.5-1.48-1.19c-1.64-7.3-5.63-9.63-16.45-9.63c-12.12,0-13.53,4.22-13.53,7.38c0,3.83,1.66,4.95,18.02,7.11
			c16.19,2.14,23.88,5.17,23.88,16.55C339.19,430.18,329.62,436.75,312.93,436.75z"/>
	</g>
	<g>
		<path class="st0" d="M388.89,372.99c0,5.59-4.57,10.15-10.15,10.15c-5.53,0-10.15-4.51-10.15-10.15c0-5.75,4.73-10.16,10.15-10.16
			C384.22,362.84,388.89,367.24,388.89,372.99z M370.23,372.96c0,4.73,3.81,8.54,8.49,8.54c4.73,0,8.54-3.9,8.54-8.54
			c0-4.73-3.87-8.49-8.54-8.49C374.09,364.48,370.23,368.18,370.23,372.96z M374.92,367.3h3.92c1.34,0,3.98,0,3.98,3.01
			c0,2.1-1.34,2.52-2.15,2.79c1.56,0.11,1.67,1.13,1.88,2.58c0.11,0.91,0.27,2.47,0.59,3.01h-2.41c-0.06-0.54-0.43-3.44-0.43-3.6
			c-0.16-0.65-0.38-0.97-1.18-0.97h-1.99v4.56h-2.2V367.3z M377.08,372.29h1.77c1.45,0,1.72-1.02,1.72-1.61
			c0-1.56-1.08-1.56-1.67-1.56h-1.82V372.29z"/>
	</g>
	<path class="st1" d="M133.51,240.77c0-2.43-1.28-4.66-3.37-5.86l-55.85-32.14c-0.94-0.56-2-0.84-3.08-0.89c-0.1,0-0.5,0-0.58,0
		c-1.07,0.04-2.13,0.33-3.08,0.89L11.7,234.91c-2.08,1.2-3.38,3.43-3.38,5.86l0.12,86.55c0,1.2,0.63,2.32,1.68,2.91
		c1.04,0.62,2.32,0.62,3.35,0l33.19-19.01c2.1-1.25,3.38-3.45,3.38-5.85v-40.44c0-2.41,1.28-4.64,3.37-5.84l14.13-8.14
		c1.05-0.61,2.2-0.91,3.38-0.91c1.15,0,2.33,0.3,3.36,0.91l14.13,8.14c2.09,1.2,3.37,3.43,3.37,5.84v40.44
		c0,2.41,1.3,4.62,3.38,5.85l33.19,19.01c1.04,0.62,2.34,0.62,3.37,0c1.03-0.59,1.68-1.71,1.68-2.91L133.51,240.77z"/>
	<path class="st1" d="M402.27,121.79c-1.05-0.58-2.32-0.57-3.35,0.04c-1.03,0.61-1.66,1.71-1.66,2.91v85.72
		c0,0.84-0.45,1.62-1.18,2.04c-0.73,0.42-1.63,0.42-2.36,0l-13.99-8.06c-2.09-1.2-4.65-1.2-6.74,0l-55.88,32.25
		c-2.09,1.21-3.37,3.43-3.37,5.84v64.51c0,2.41,1.29,4.64,3.37,5.84l55.87,32.27c2.09,1.21,4.66,1.21,6.75,0l55.88-32.27
		c2.09-1.21,3.37-3.43,3.37-5.84v-160.8c0-2.45-1.32-4.7-3.46-5.89L402.27,121.79z M397.08,285.84c0,0.6-0.32,1.16-0.84,1.46
		l-19.18,11.06c-0.52,0.3-1.16,0.3-1.68,0l-19.18-11.06c-0.52-0.3-0.84-0.86-0.84-1.46v-22.15c0-0.6,0.32-1.16,0.84-1.46
		l19.18-11.08c0.52-0.3,1.17-0.3,1.69,0l19.18,11.08c0.52,0.3,0.84,0.86,0.84,1.46V285.84z"/>
	<g>
		<path class="st1" d="M588.32,263.11c2.08-1.21,3.36-3.43,3.36-5.83v-15.63c0-2.4-1.28-4.63-3.36-5.84l-55.52-32.23
			c-2.09-1.21-4.67-1.22-6.76-0.01l-55.86,32.25c-2.09,1.21-3.37,3.43-3.37,5.84v64.49c0,2.43,1.3,4.66,3.41,5.86l55.51,31.63
			c2.05,1.17,4.56,1.18,6.62,0.04l33.57-18.66c1.07-0.59,1.73-1.71,1.73-2.93c0.01-1.22-0.64-2.34-1.69-2.95l-56.21-32.26
			c-1.05-0.6-1.7-1.72-1.7-2.93v-20.21c0-1.2,0.64-2.32,1.69-2.92l17.49-10.09c1.04-0.6,2.33-0.6,3.37,0l17.5,10.09
			c1.05,0.6,1.69,1.72,1.69,2.92v15.9c0,1.21,0.65,2.32,1.69,2.92c1.05,0.6,2.33,0.6,3.38-0.01L588.32,263.11z"/>
		<path class="st2" d="M528.6,260.09c0.4-0.23,0.89-0.23,1.3,0l10.72,6.19c0.4,0.23,0.65,0.66,0.65,1.12v12.38
			c0,0.46-0.25,0.89-0.65,1.12l-10.72,6.19c-0.4,0.23-0.89,0.23-1.3,0l-10.71-6.19c-0.4-0.23-0.65-0.66-0.65-1.12v-12.38
			c0-0.46,0.25-0.89,0.65-1.12L528.6,260.09z"/>
	</g>
	<g>
		<defs>
			<path id="XMLID_143_" d="M226.98,203.9c-2.08-1.2-4.63-1.2-6.71,0l-55.56,32.06c-2.08,1.2-3.36,3.41-3.36,5.81v64.18
				c0,2.4,1.28,4.61,3.35,5.81l55.56,32.09c2.08,1.2,4.64,1.2,6.71,0l55.55-32.09c2.08-1.2,3.35-3.42,3.35-5.81v-64.18
				c0-2.4-1.28-4.61-3.36-5.81L226.98,203.9z"/>
		</defs>
		<linearGradient id="XMLID_2_" gradientUnits="userSpaceOnUse" x1="246.2099" y1="227.7789" x2="196.0131" y2="330.1805">
			<stop  offset="0" style="stop-color:#3F873F"/>
			<stop  offset="0.3296" style="stop-color:#3F8B3D"/>
			<stop  offset="0.6367" style="stop-color:#3E9638"/>
			<stop  offset="0.9341" style="stop-color:#3DA92E"/>
			<stop  offset="1" style="stop-color:#3DAE2B"/>
		</linearGradient>
		<use xlink:href="#XMLID_143_"  style="overflow:visible;fill-rule:evenodd;clip-rule:evenodd;fill:url(#XMLID_2_);"/>
		<clipPath id="XMLID_3_">
			<use xlink:href="#XMLID_143_"  style="overflow:visible;"/>
		</clipPath>
		<g class="st3">
			<path class="st4" d="M220.16,203.9l-55.68,32.06c-2.08,1.2-3.59,3.41-3.59,5.81v64.18c0,1.59,0.68,3.08,1.73,4.27l62.56-107.02
				C223.5,202.79,221.68,203.02,220.16,203.9z"/>
			<path class="st4" d="M225.49,344.5c0.54-0.15,1.07-0.36,1.56-0.65l55.62-32.09c2.08-1.2,3.49-3.42,3.49-5.81v-64.18
				c0-1.76-0.79-3.43-2.03-4.66L225.49,344.5z"/>
			<linearGradient id="SVGID_1_" gradientUnits="userSpaceOnUse" x1="215.162" y1="281.3701" x2="356.0106" y2="177.3037">
				<stop  offset="0.1376" style="stop-color:#3F873F"/>
				<stop  offset="0.4016" style="stop-color:#52A044"/>
				<stop  offset="0.7129" style="stop-color:#64B749"/>
				<stop  offset="0.9081" style="stop-color:#6ABF4B"/>
			</linearGradient>
			<path class="st5" d="M282.64,235.96l-55.72-32.06c-0.55-0.32-1.14-0.54-1.74-0.69l-62.56,107.02c0.54,0.61,1.17,1.14,1.87,1.54
				l55.81,32.09c1.58,0.91,3.46,1.13,5.18,0.65l58.65-107.39C283.69,236.67,283.19,236.28,282.64,235.96z"/>
		</g>
		<g class="st3">
			<path class="st4" d="M286.16,305.95v-64.18c0-2.4-1.45-4.61-3.52-5.81l-55.72-32.06c-0.64-0.37-1.33-0.61-2.04-0.75l61.08,104.35
				C286.09,306.99,286.16,306.48,286.16,305.95z"/>
			<path class="st4" d="M164.48,235.96c-2.08,1.2-3.59,3.41-3.59,5.81v64.18c0,2.4,1.53,4.61,3.6,5.81l55.81,32.09
				c1.31,0.76,2.83,1.03,4.29,0.83l-59.79-108.92L164.48,235.96z"/>
			<linearGradient id="SVGID_2_" gradientUnits="userSpaceOnUse" x1="159.3863" y1="192.3315" x2="287.8518" y2="192.3315">
				<stop  offset="0.0919" style="stop-color:#6ABF4B"/>
				<stop  offset="0.2871" style="stop-color:#64B749"/>
				<stop  offset="0.5984" style="stop-color:#52A044"/>
				<stop  offset="0.8624" style="stop-color:#3F873F"/>
			</linearGradient>
			<polygon class="st6" points="218.42,192.11 217.65,192.55 218.67,192.55 			"/>
			<linearGradient id="SVGID_3_" gradientUnits="userSpaceOnUse" x1="159.3863" y1="273.8509" x2="287.8518" y2="273.8509">
				<stop  offset="0.0919" style="stop-color:#6ABF4B"/>
				<stop  offset="0.2871" style="stop-color:#64B749"/>
				<stop  offset="0.5984" style="stop-color:#52A044"/>
				<stop  offset="0.8624" style="stop-color:#3F873F"/>
			</linearGradient>
			<path class="st7" d="M282.67,311.77c1.62-0.94,2.83-2.49,3.29-4.27l-61.08-104.35c-1.59-0.32-3.29-0.08-4.72,0.75l-55.34,31.87
				l59.79,108.92c0.85-0.12,1.69-0.39,2.45-0.83L282.67,311.77z"/>
			<linearGradient id="SVGID_4_" gradientUnits="userSpaceOnUse" x1="159.3863" y1="310.5253" x2="287.8518" y2="310.5253">
				<stop  offset="0.0919" style="stop-color:#6ABF4B"/>
				<stop  offset="0.2871" style="stop-color:#64B749"/>
				<stop  offset="0.5984" style="stop-color:#52A044"/>
				<stop  offset="0.8624" style="stop-color:#3F873F"/>
			</linearGradient>
			<polygon class="st8" points="287.85,310.73 287.48,310.1 287.48,310.95 			"/>
			<linearGradient id="SVGID_5_" gradientUnits="userSpaceOnUse" x1="159.3863" y1="327.1011" x2="287.8518" y2="327.1011">
				<stop  offset="0.0919" style="stop-color:#6ABF4B"/>
				<stop  offset="0.2871" style="stop-color:#64B749"/>
				<stop  offset="0.5984" style="stop-color:#52A044"/>
				<stop  offset="0.8624" style="stop-color:#3F873F"/>
			</linearGradient>
			<path class="st9" d="M282.67,311.77l-55.62,32.09c-0.77,0.44-1.6,0.72-2.45,0.83l1.11,2.02l61.78-35.76v-0.84l-1.53-2.61
				C285.5,309.27,284.29,310.83,282.67,311.77z"/>
			<linearGradient id="SVGID_6_" gradientUnits="userSpaceOnUse" x1="306.5677" y1="224.743" x2="227.3383" y2="386.3709">
				<stop  offset="0" style="stop-color:#3F873F"/>
				<stop  offset="0.3296" style="stop-color:#3F8B3D"/>
				<stop  offset="0.6367" style="stop-color:#3E9638"/>
				<stop  offset="0.9341" style="stop-color:#3DA92E"/>
				<stop  offset="1" style="stop-color:#3DAE2B"/>
			</linearGradient>
			<path class="st10" d="M282.67,311.77l-55.62,32.09c-0.77,0.44-1.6,0.72-2.45,0.83l1.11,2.02l61.78-35.76v-0.84l-1.53-2.61
				C285.5,309.27,284.29,310.83,282.67,311.77z"/>
		</g>
	</g>
</g>
</svg>
