<?xml version="1.0" encoding="utf-8"?>
<!-- Generator: Adobe Illustrator 23.0.0, SVG Export Plug-In . SVG Version: 6.00 Build 0)  -->
<svg version="1.1"
	 id="svg3430" xmlns:cc="http://creativecommons.org/ns#" xmlns:dc="http://purl.org/dc/elements/1.1/" xmlns:rdf="http://www.w3.org/1999/02/22-rdf-syntax-ns#" xmlns:svg="http://www.w3.org/2000/svg"
	 xmlns="http://www.w3.org/2000/svg" xmlns:xlink="http://www.w3.org/1999/xlink" x="0px" y="0px" viewBox="0 0 691.2 691.2"
	 style="enable-background:new 0 0 691.2 691.2;" xml:space="preserve">
<style type="text/css">
	.st0{clip-path:url(#SVGID_2_);}
	.st1{fill:url(#path3462_1_);}
	.st2{clip-path:url(#SVGID_4_);}
	.st3{fill:#777BB3;}
	.st4{clip-path:url(#SVGID_6_);}
	.st5{fill:#FFFFFF;}
</style>
<title  id="title3510">Official PHP Logo</title>
<g id="g3438" transform="matrix(1.25,0,0,-1.25,-4.4,394.29875)">
	<g id="g3440">
		<g>
			<defs>
				<path id="SVGID_1_" d="M14.6,39c0-77.1,118.8-139.6,265.4-139.6l0,0c146.6,0,265.4,62.5,265.4,139.6l0,0
					c0,77.1-118.8,139.6-265.4,139.6l0,0C133.4,178.6,14.6,116.1,14.6,39"/>
			</defs>
			<clipPath id="SVGID_2_">
				<use xlink:href="#SVGID_1_"  style="overflow:visible;"/>
			</clipPath>
			<g id="g3442" class="st0">
				<g id="g3448">
					<g id="g3450">
						
							<radialGradient id="path3462_1_" cx="-517.7372" cy="-760.5711" r="0.96" gradientTransform="matrix(453.8224 0 0 -453.8224 235134.6875 -345034.6875)" gradientUnits="userSpaceOnUse">
							<stop  offset="0" style="stop-color:#AEB2D5"/>
							<stop  offset="0.3" style="stop-color:#AEB2D5"/>
							<stop  offset="0.75" style="stop-color:#484C89"/>
							<stop  offset="1" style="stop-color:#484C89"/>
						</radialGradient>
						<path id="path3462" class="st1" d="M14.6,39c0-77.1,118.8-139.6,265.4-139.6l0,0c146.6,0,265.4,62.5,265.4,139.6l0,0
							c0,77.1-118.8,139.6-265.4,139.6l0,0C133.4,178.6,14.6,116.1,14.6,39"/>
					</g>
				</g>
			</g>
		</g>
	</g>
	<g id="g3464">
		<g>
			<defs>
				<rect id="SVGID_3_" x="-65.6" y="-155.4" width="691.2" height="388.8"/>
			</defs>
			<clipPath id="SVGID_4_">
				<use xlink:href="#SVGID_3_"  style="overflow:visible;"/>
			</clipPath>
			<g id="g3466" class="st2">
				<g id="g3472" transform="translate(288,27.3594)">
					<path id="path3474" class="st3" d="M-8-117.7c140.9,0,255.1,57.9,255.1,129.3C247.1,83,132.9,140.9-8,140.9
						S-263.1,83-263.1,11.6C-263.1-59.8-148.9-117.7-8-117.7"/>
				</g>
			</g>
		</g>
	</g>
	<g id="g3476">
		<g>
			<defs>
				<rect id="SVGID_5_" x="-65.6" y="-155.4" width="691.2" height="388.8"/>
			</defs>
			<clipPath id="SVGID_6_">
				<use xlink:href="#SVGID_5_"  style="overflow:visible;"/>
			</clipPath>
			<g id="g3478" class="st4">
				<g id="g3484" transform="translate(161.7344,145.3066)">
					<path id="path3486" d="M-2.9-122.4c11.6,0,20.2,2.1,25.7,6.3c5.4,4.2,9.2,11.4,11.1,21.5c1.8,9.4,1.1,16-2.1,19.5
						c-3.3,3.6-10.3,5.5-21,5.5H-7.7L-18-122.4H-2.9z M-63.5-187.4c-0.9,0-1.7,0.4-2.2,1c-0.5,0.7-0.8,1.5-0.6,2.4l27.2,139.9
						c0.3,1.4,1.4,2.3,2.8,2.3h58.6c18.4,0,32.1-5,40.7-14.9c8.7-9.9,11.3-23.8,8-41.2c-1.4-7.1-3.7-13.7-7-19.6
						c-3.3-5.9-7.7-11.4-13-16.3c-6.4-5.9-13.5-10.3-21.3-12.8c-7.7-2.5-17.5-3.8-29.3-3.8h-23.7l-6.8-34.9
						c-0.3-1.4-1.4-2.3-2.8-2.3H-63.5z"/>
				</g>
				<g id="g3488" transform="translate(159.2236,197.3071)">
					<path id="path3490" class="st5" d="M-2.8-124.5h16.1c12.9,0,17.4-2.8,18.9-4.5c2.5-2.8,3-8.7,1.4-17.1c-1.8-9.4-5.2-16-10-19.7
						c-5-3.8-13-5.7-23.9-5.7H-12L-2.8-124.5z M24.8-90.9h-58.6c-2.8,0-5.1-2-5.7-4.7l-27.2-139.9c-0.3-1.7,0.1-3.4,1.2-4.8
						c1.1-1.3,2.7-2.1,4.4-2.1h30.5c2.8,0,5.1,2,5.7,4.7l6.3,32.5H2.8c12.1,0,22.2,1.3,30.2,3.9c8.2,2.7,15.7,7.2,22.4,13.4
						c5.5,5.1,10.1,10.8,13.5,17c3.4,6.2,5.9,13.1,7.4,20.4c3.6,18.3,0.7,33-8.6,43.6C58.6-96.2,44.1-90.9,24.8-90.9 M-19-177.3
						h18.5c12.3,0,21.4,2.3,27.5,6.9c6,4.6,10.1,12.4,12.2,23.2c2,10.4,1.1,17.7-2.8,22c-3.9,4.3-11.6,6.4-23.2,6.4H-7.6L-19-177.3
						 M24.8-96.6c17.6,0,30.5-4.6,38.6-13.9c8.1-9.3,10.5-22.2,7.3-38.8c-1.3-6.8-3.6-13.1-6.7-18.7c-3.2-5.7-7.3-10.8-12.4-15.5
						c-6.1-5.7-12.8-9.8-20.3-12.2c-7.4-2.4-16.9-3.6-28.4-3.6h-26.1l-7.2-37.2H-61l27.2,139.9H24.8"/>
				</g>
				<g id="g3492" transform="translate(311.583,116.3066)">
					<path id="path3494" d="M-8.9-121.2c-0.9,0-1.7,0.4-2.2,1c-0.5,0.7-0.8,1.5-0.6,2.4l12,61.9C1.4-50,1.1-45.8-0.5-44
						c-1,1.1-4.1,2.9-13.1,2.9h-21.8l-15.1-77.8c-0.3-1.4-1.4-2.3-2.8-2.3h-30.2c-0.9,0-1.7,0.4-2.2,1c-0.5,0.7-0.8,1.5-0.6,2.4
						l27.2,139.9c0.3,1.4,1.4,2.3,2.8,2.3h30.2c0.9,0,1.7-0.4,2.2-1c0.5-0.7,0.8-1.5,0.6-2.4l-6.6-33.8h23.4c17.9,0,30-3.1,37-9.6
						c7.2-6.6,9.4-17.2,6.7-31.4l-12.7-65.1c-0.3-1.4-1.4-2.3-2.8-2.3H-8.9z"/>
				</g>
				<g id="g3496" transform="translate(293.6611,271.0571)">
					<path id="path3498" class="st5" d="M-8.2-127.4h-30.2c-2.8,0-5.1-2-5.7-4.7L-71.3-272c-0.3-1.7,0.1-3.4,1.2-4.8
						s2.7-2.1,4.4-2.1h30.2c2.8,0,5.1,2,5.7,4.7l14.7,75.5H4.3c9,0,10.9-1.9,11-2c0.5-0.6,1.3-3.3,0.1-9.4L3.3-272
						c-0.3-1.7,0.1-3.4,1.2-4.8s2.7-2.1,4.4-2.1h30.7c2.8,0,5.1,2,5.7,4.7L58-209.1c3,15.3,0.4,26.7-7.5,34.1
						c-7.6,7-20.4,10.4-39,10.4h-20l5.9,30.3c0.3,1.7-0.1,3.4-1.2,4.8C-4.9-128.2-6.5-127.4-8.2-127.4 M-8.2-133.2l-7.2-37.2h26.9
						c17,0,28.6-3,35.1-8.9c6.4-5.9,8.4-15.5,5.8-28.7l-12.7-65.1H9l12,61.9c1.4,7,0.9,11.8-1.5,14.4c-2.4,2.6-7.4,3.8-15.2,3.8
						h-24.2l-15.6-80.2h-30.2l27.2,139.9H-8.2"/>
				</g>
				<g id="g3500" transform="translate(409.5498,145.3066)">
					<path id="path3502" d="M-12.9-122.4c11.6,0,20.2,2.1,25.7,6.3c5.4,4.2,9.2,11.4,11.1,21.5c1.8,9.4,1.1,16-2.1,19.5
						c-3.3,3.6-10.3,5.5-21,5.5h-18.5l-10.3-52.8H-12.9z M-73.4-187.4c-0.9,0-1.7,0.4-2.2,1c-0.5,0.7-0.8,1.5-0.6,2.4L-49-44.1
						c0.3,1.4,1.4,2.3,2.8,2.3h58.6c18.4,0,32.1-5,40.8-14.9c8.7-9.9,11.3-23.8,8-41.2c-1.4-7.1-3.8-13.7-7-19.6
						c-3.3-5.9-7.7-11.4-13-16.3c-6.4-5.9-13.5-10.3-21.3-12.8c-7.7-2.5-17.5-3.8-29.3-3.8h-23.7l-6.8-34.9
						c-0.3-1.4-1.4-2.3-2.8-2.3H-73.4z"/>
				</g>
				<g id="g3504" transform="translate(407.0391,197.3071)">
					<path id="path3506" class="st5" d="M-12.8-124.5H3.4c12.9,0,17.4-2.8,18.9-4.5c2.5-2.8,3-8.7,1.4-17.1c-1.8-9.4-5.2-16-10-19.7
						c-5-3.8-13-5.7-23.9-5.7h-11.6L-12.8-124.5z M14.9-90.9h-58.6c-2.8,0-5.1-2-5.7-4.7l-27.2-139.9c-0.3-1.7,0.1-3.4,1.2-4.8
						c1.1-1.3,2.7-2.1,4.4-2.1h30.5c2.8,0,5.1,2,5.7,4.7l6.3,32.5h21.4c12.1,0,22.2,1.3,30.2,3.9c8.2,2.7,15.7,7.2,22.4,13.4
						c5.5,5.1,10.1,10.8,13.5,16.9c3.4,6.2,5.9,13.1,7.4,20.4c3.6,18.3,0.7,33-8.6,43.6C48.6-96.2,34.2-90.9,14.9-90.9 M-28.9-177.3
						h18.5c12.3,0,21.4,2.3,27.5,6.9c6,4.6,10.1,12.4,12.2,23.2c2,10.4,1.1,17.7-2.8,22c-3.9,4.3-11.6,6.4-23.2,6.4h-20.9
						L-28.9-177.3 M14.9-96.6c17.6,0,30.5-4.6,38.6-13.9s10.5-22.2,7.3-38.8c-1.3-6.8-3.6-13.1-6.7-18.7
						c-3.2-5.7-7.3-10.8-12.4-15.5c-6.1-5.7-12.8-9.8-20.3-12.2c-7.4-2.4-16.9-3.6-28.4-3.6h-26.1l-7.2-37.2h-30.5l27.2,139.9H14.9"
						/>
				</g>
			</g>
		</g>
	</g>
</g>
</svg>
