<?xml version="1.0" encoding="utf-8"?>
<!-- Generator: Adobe Illustrator 23.0.0, SVG Export Plug-In . SVG Version: 6.00 Build 0)  -->
<svg version="1.1" id="Camada_1" xmlns="http://www.w3.org/2000/svg" xmlns:xlink="http://www.w3.org/1999/xlink" x="0px" y="0px"
	 viewBox="0 0 2500 2500" style="enable-background:new 0 0 2500 2500;" xml:space="preserve">
<style type="text/css">
	.st0{fill:url(#SVGID_1_);}
	.st1{fill:url(#SVGID_2_);}
</style>
<linearGradient id="SVGID_1_" gradientUnits="userSpaceOnUse" x1="249.9921" y1="2250.0063" x2="250.6589" y2="2249.3447" gradientTransform="matrix(1849.2675 0 0 -1853.3917 -462065.4375 4170382)">
	<stop  offset="0" style="stop-color:#387EB8"/>
	<stop  offset="1" style="stop-color:#366994"/>
</linearGradient>
<path class="st0" d="M1241,9.6C608,9.6,647.5,284.2,647.5,284.2l0.7,284.4h604.1V654H408.2c0,0-405.1-45.9-405.1,592.8
	c0,638.8,353.6,616.1,353.6,616.1h211v-296.4c0,0-11.4-353.6,347.9-353.6h599.2c0,0,336.6,5.4,336.6-325.4V340.6
	C1851.5,340.6,1902.6,9.6,1241,9.6z M907.9,200.9c60-0.1,108.6,48.5,108.7,108.5c0,0.1,0,0.1,0,0.2c0.1,60-48.5,108.6-108.5,108.7
	c-0.1,0-0.1,0-0.2,0c-60,0.1-108.6-48.5-108.7-108.5c0-0.1,0-0.1,0-0.2c-0.1-60,48.5-108.6,108.5-108.7
	C907.8,200.9,907.8,200.9,907.9,200.9z"/>
<linearGradient id="SVGID_2_" gradientUnits="userSpaceOnUse" x1="250.0538" y1="2249.9209" x2="250.77" y2="2249.2424" gradientTransform="matrix(1849.2671 0 0 -1853.3918 -461420.9063 4171009.75)">
	<stop  offset="0" style="stop-color:#FFE052"/>
	<stop  offset="1" style="stop-color:#FFC331"/>
</linearGradient>
<path class="st1" d="M1259,2490.4c633.1,0,593.5-274.5,593.5-274.5l-0.7-284.4h-604.1V1846h844.1c0,0,405.1,45.9,405.1-592.8
	c0-638.8-353.6-616.1-353.6-616.1h-211v296.4c0,0,11.4,353.6-347.9,353.6H985.2c0,0-336.6-5.4-336.6,325.4v547
	C648.5,2159.4,597.4,2490.4,1259,2490.4L1259,2490.4z M1592.1,2299.1c-60,0.1-108.6-48.5-108.7-108.5c0-0.1,0-0.1,0-0.2
	c-0.1-60,48.5-108.6,108.5-108.7c0.1,0,0.1,0,0.2,0c60-0.1,108.6,48.5,108.7,108.5c0,0.1,0,0.1,0,0.2c0.1,60-48.5,108.6-108.5,108.7
	C1592.2,2299.1,1592.2,2299.1,1592.1,2299.1L1592.1,2299.1z"/>
</svg>
