<?xml version="1.0" encoding="utf-8"?>
<!-- Generator: Adobe Illustrator 23.0.0, SVG Export Plug-In . SVG Version: 6.00 Build 0)  -->
<svg version="1.1" id="Camada_1" xmlns="http://www.w3.org/2000/svg" xmlns:xlink="http://www.w3.org/1999/xlink" x="0px" y="0px"
	 viewBox="0 0 1908.3 1908.3" style="enable-background:new 0 0 1908.3 1908.3;" xml:space="preserve">
<style type="text/css">
	.st0{fill:#61DAFB;}
</style>
<g>
	<path class="st0" d="M1908.3,954.4c0-126.4-158.3-246.2-401-320.5c56-247.4,31.1-444.2-78.6-507.2c-25.3-14.8-54.8-21.8-87.1-21.8
		v86.7c17.9,0,32.3,3.5,44.3,10.1c52.9,30.3,75.8,145.9,58,294.5c-4.3,36.6-11.3,75.1-19.8,114.4c-76.2-18.7-159.5-33.1-247-42.4
		c-52.5-72-107-137.3-161.8-194.5C1142,255.8,1261.1,191.2,1342,191.2v-86.7c-107,0-247,76.2-388.6,208.5
		C811.8,181.5,671.8,106,564.8,106v86.7c80.5,0,199.9,64.2,326.7,181.3c-54.5,57.2-108.9,122.1-160.7,194.1
		c-87.9,9.3-171.2,23.7-247.4,42.8c-9-38.9-15.6-76.6-20.2-112.8C445,349.5,467.5,234,520,203.3c11.7-7,26.8-10.1,44.7-10.1v-86.8
		c-32.7,0-62.2,7-87.9,21.8c-109.3,63-133.8,259.5-77.4,506C157.5,708.9,0,828.3,0,954.4c0,126.4,158.3,246.2,401,320.5
		c-56,247.4-31.1,444.2,78.6,507.2c25.3,14.8,54.9,21.8,87.5,21.8c107,0,247-76.2,388.6-208.5c141.6,131.5,281.6,206.9,388.6,206.9
		c32.7,0,62.2-7,87.9-21.8c109.3-63,133.8-259.4,77.4-506.1C1750.8,1200.2,1908.3,1080.4,1908.3,954.4L1908.3,954.4z M1401.9,694.9
		c-14.4,50.2-32.3,101.9-52.5,153.6c-15.9-31.1-32.7-62.2-51-93.3c-17.9-31.1-36.9-61.5-56-91
		C1297.6,672.3,1350.9,682.5,1401.9,694.9L1401.9,694.9z M1223.7,1109.2c-30.3,52.5-61.5,102.3-93.7,148.6
		c-58,5.1-116.7,7.8-175.8,7.8c-58.7,0-117.5-2.7-175-7.4c-32.3-46.3-63.8-95.7-94.1-147.8c-29.6-51-56.4-102.7-80.9-154.8
		c24.1-52.1,51.3-104.2,80.5-155.2c30.3-52.5,61.5-102.3,93.7-148.6c58-5.1,116.7-7.8,175.8-7.8c58.7,0,117.5,2.7,175,7.4
		c32.3,46.3,63.8,95.7,94.1,147.8c29.6,51,56.4,102.7,80.9,154.8C1279.7,1006.1,1252.9,1058.2,1223.7,1109.2L1223.7,1109.2z
		 M1349.3,1058.6c21,52.1,38.9,104.2,53.7,154.8c-51,12.4-104.6,22.9-160.3,31.1c19.1-29.9,38.1-60.7,56-92.2
		C1316.7,1121.2,1333.4,1089.7,1349.3,1058.6L1349.3,1058.6z M954.9,1473.6c-36.2-37.3-72.3-79-108.1-124.5c35,1.6,70.8,2.7,107,2.7
		c36.6,0,72.7-0.8,108.1-2.7C1026.9,1394.7,990.7,1436.3,954.9,1473.6z M665.5,1244.5c-55.2-8.2-108.5-18.3-159.5-30.7
		c14.4-50.2,32.3-101.9,52.5-153.6c16,31.1,32.7,62.2,51,93.3C627.8,1184.6,646.5,1215,665.5,1244.5z M953,435.1
		c36.2,37.3,72.4,79,108.1,124.5c-35-1.6-70.8-2.7-107-2.7c-36.6,0-72.7,0.8-108.1,2.7C881,514,917.2,472.4,953,435.1z M665.1,664.2
		c-19.1,30-38.1,60.7-56,92.2c-17.9,31.1-34.6,62.2-50.6,93.3c-21-52.1-38.9-104.2-53.7-154.8C555.8,682.8,609.5,672.3,665.1,664.2
		L665.1,664.2z M313.1,1151.2c-137.7-58.7-226.8-135.7-226.8-196.8s89.1-138.5,226.8-196.8c33.5-14.4,70-27.2,107.8-39.3
		c22.2,76.2,51.3,155.6,87.5,236.9c-35.8,80.9-64.6,159.9-86.4,235.7C383.5,1178.8,347,1165.6,313.1,1151.2L313.1,1151.2z
		 M522.4,1707c-52.9-30.3-75.9-145.9-58-294.4c4.3-36.6,11.3-75.1,19.8-114.4c76.2,18.7,159.5,33.1,247,42.4
		c52.5,72,107,137.3,161.8,194.5c-126.8,117.9-245.8,182.4-326.7,182.4C548.8,1717.1,534.1,1713.6,522.4,1707L522.4,1707z
		 M1445,1410.6c18.3,148.6-4.3,264.1-56.8,294.8c-11.7,7-26.8,10.1-44.7,10.1c-80.5,0-199.9-64.2-326.7-181.3
		c54.5-57.2,108.9-122.1,160.7-194.1c87.9-9.3,171.2-23.7,247.4-42.8C1433.8,1336.7,1440.8,1374.4,1445,1410.6z M1594.8,1151.2
		c-33.4,14.4-70,27.2-107.8,39.3c-22.2-76.2-51.3-155.6-87.5-236.9c35.8-80.9,64.6-159.9,86.3-235.7c38.5,12.1,75.1,25.3,109.3,39.7
		c137.7,58.7,226.8,135.8,226.8,196.8C1821.6,1015.4,1732.5,1092.8,1594.8,1151.2L1594.8,1151.2z"/>
	<circle class="st0" cx="953.8" cy="954.4" r="177.8"/>
</g>
</svg>
