<?xml version="1.0" encoding="utf-8"?>
<!-- Generator: Adobe Illustrator 23.0.0, SVG Export Plug-In . SVG Version: 6.00 Build 0)  -->
<svg version="1.1" id="Camada_1" xmlns="http://www.w3.org/2000/svg" xmlns:xlink="http://www.w3.org/1999/xlink" x="0px" y="0px"
	 viewBox="0 0 1975 1754.17" style="enable-background:new 0 0 1975 1754.17;" xml:space="preserve">
<style type="text/css">
	.st0{fill:#61DAFB;}
</style>
<g>
	<path class="st0" d="M1941.65,877.28c0-126.42-158.31-246.22-401.03-320.51c56.01-247.39,31.12-444.21-78.57-507.22
		c-25.28-14.78-54.85-21.78-87.13-21.78v86.74c17.89,0,32.28,3.5,44.34,10.11c52.9,30.34,75.85,145.87,57.96,294.45
		c-4.28,36.56-11.28,75.07-19.84,114.36c-76.24-18.67-159.48-33.06-247-42.4c-52.51-71.96-106.97-137.31-161.81-194.49
		c126.81-117.86,245.83-182.43,326.74-182.43V27.37c-106.97,0-247,76.24-388.58,208.49C845.14,104.39,705.11,28.93,598.14,28.93
		v86.74c80.52,0,199.93,64.18,326.74,181.26c-54.46,57.18-108.91,122.14-160.65,194.1c-87.91,9.34-171.15,23.73-247.39,42.79
		c-8.95-38.9-15.56-76.63-20.23-112.8c-18.28-148.59,4.28-264.11,56.79-294.84c11.67-7,26.84-10.11,44.73-10.11V29.32
		c-32.67,0-62.24,7-87.91,21.78c-109.3,63.01-133.81,259.45-77.41,506.05C190.88,631.84,33.35,751.25,33.35,877.28
		c0,126.42,158.31,246.22,401.03,320.51c-56.01,247.39-31.12,444.21,78.57,507.22c25.28,14.78,54.85,21.78,87.52,21.78
		c106.97,0,247-76.24,388.58-208.49c141.59,131.47,281.62,206.93,388.58,206.93c32.67,0,62.24-7,87.91-21.78
		c109.3-63.01,133.81-259.45,77.41-506.05C1784.12,1123.11,1941.65,1003.3,1941.65,877.28L1941.65,877.28z M1435.21,617.83
		c-14.39,50.18-32.28,101.91-52.51,153.64c-15.95-31.12-32.67-62.24-50.96-93.35c-17.89-31.12-36.95-61.46-56.01-91.02
		C1330.96,595.27,1384.25,605.39,1435.21,617.83L1435.21,617.83z M1257.06,1032.09c-30.34,52.51-61.46,102.3-93.74,148.59
		c-57.96,5.06-116.69,7.78-175.82,7.78c-58.74,0-117.47-2.72-175.04-7.39c-32.28-46.29-63.79-95.69-94.13-147.81
		c-29.56-50.96-56.4-102.69-80.91-154.81c24.12-52.12,51.34-104.24,80.52-155.2c30.34-52.51,61.46-102.3,93.74-148.59
		c57.96-5.06,116.69-7.78,175.82-7.78c58.73,0,117.47,2.72,175.04,7.39c32.28,46.29,63.79,95.69,94.13,147.81
		c29.56,50.96,56.4,102.69,80.91,154.81C1313.07,929.01,1286.23,981.13,1257.06,1032.09L1257.06,1032.09z M1382.7,981.52
		c21,52.12,38.9,104.24,53.68,154.81c-50.96,12.45-104.63,22.95-160.26,31.12c19.06-29.95,38.12-60.68,56.01-92.19
		C1350.02,1044.15,1366.75,1012.64,1382.7,981.52L1382.7,981.52z M988.28,1396.56c-36.17-37.34-72.35-78.96-108.13-124.47
		c35.01,1.56,70.79,2.72,106.97,2.72c36.56,0,72.74-0.78,108.13-2.72C1060.24,1317.6,1024.06,1359.22,988.28,1396.56z
		 M698.88,1167.45c-55.23-8.17-108.52-18.28-159.48-30.73c14.39-50.18,32.28-101.91,52.51-153.64
		c15.95,31.12,32.67,62.24,50.96,93.35C661.15,1107.55,679.82,1137.89,698.88,1167.45z M986.33,358
		c36.17,37.34,72.35,78.96,108.13,124.47c-35.01-1.56-70.79-2.72-106.97-2.72c-36.56,0-72.74,0.78-108.13,2.72
		C914.37,436.96,950.55,395.34,986.33,358z M698.49,587.1c-19.06,29.95-38.12,60.68-56.01,92.19
		c-17.89,31.12-34.62,62.24-50.57,93.35c-21-52.12-38.9-104.24-53.68-154.81C589.19,605.77,642.87,595.27,698.49,587.1L698.49,587.1
		z M346.47,1074.1c-137.7-58.73-226.77-135.75-226.77-196.82s89.07-138.47,226.77-196.82c33.45-14.39,70.02-27.23,107.75-39.29
		c22.17,76.24,51.34,155.59,87.52,236.88c-35.79,80.91-64.57,159.87-86.35,235.72C416.88,1101.72,380.31,1088.49,346.47,1074.1
		L346.47,1074.1z M555.74,1629.94c-52.9-30.34-75.85-145.86-57.96-294.45c4.28-36.56,11.28-75.07,19.84-114.36
		c76.24,18.67,159.48,33.06,247,42.4c52.51,71.96,106.97,137.31,161.81,194.49c-126.81,117.86-245.83,182.43-326.74,182.43
		C582.19,1640.05,567.41,1636.55,555.74,1629.94L555.74,1629.94z M1478.38,1333.54c18.28,148.59-4.28,264.11-56.79,294.84
		c-11.67,7-26.84,10.11-44.73,10.11c-80.52,0-199.93-64.18-326.74-181.26c54.46-57.18,108.91-122.14,160.65-194.1
		c87.91-9.34,171.15-23.73,247.39-42.79C1467.1,1259.64,1474.1,1297.37,1478.38,1333.54z M1628.14,1074.1
		c-33.45,14.39-70.02,27.23-107.75,39.29c-22.17-76.24-51.34-155.59-87.52-236.88c35.79-80.91,64.57-159.87,86.35-235.72
		c38.51,12.06,75.07,25.28,109.3,39.68c137.7,58.73,226.77,135.75,226.77,196.82C1854.91,938.35,1765.84,1015.75,1628.14,1074.1
		L1628.14,1074.1z"/>
	<circle class="st0" cx="987.11" cy="877.28" r="177.76"/>
</g>
</svg>
