<?xml version="1.0" encoding="utf-8"?>
<!-- Generator: Adobe Illustrator 23.0.0, SVG Export Plug-In . SVG Version: 6.00 Build 0)  -->
<svg version="1.1" id="Camada_1" xmlns="http://www.w3.org/2000/svg" xmlns:xlink="http://www.w3.org/1999/xlink" x="0px" y="0px"
	 viewBox="0 0 2000 570" style="enable-background:new 0 0 2000 570;" xml:space="preserve">
<style type="text/css">
	.st0{enable-background:new    ;}
</style>
<g class="st0">
	<path d="M381.2,181.2c0,1.8-1.6,2.7-4.9,2.7c-12.2,0-30.7-1.1-55.5-3.2c-24.8-2.1-43.4-3.2-55.8-3.2c-15.6,0-24.7,0.6-27.3,1.7
		c-6,2.8-9,10.6-9,23.4c0,15.5,3.9,24.3,11.7,26.4c3.3,0.8,8.2,1.2,14.9,1.2c11.2,0,28-0.6,50.4-1.8c22.4-1.2,39.2-1.8,50.4-1.8
		c5.4,0,8.1,14.3,8.1,43c0,24.9-0.9,39.4-2.7,43.5c-1.1,2.9-3.3,4.4-6.6,4.4c2.1,0-3-0.6-15.4-1.7c-17.4-1.6-43.8-2.4-79.1-2.4
		c-11.4,0-17.8,0.1-19.3,0.2c-8.3,1.3-12.5,4.8-12.5,10.5c0,23.1,1,49.7,2.9,79.8c1.6,27.2,2.4,39.3,2.4,36.4
		c0,4.2-5.1,6.7-15.4,7.3c2.8-0.2-4.5-0.2-21.7-0.2c-30.4,0-50-1.1-58.8-3.2c-4.7-1.1-7.1-3.7-7.1-7.6c0-18.1,0.6-45.2,1.8-81.4
		c1.2-36.2,1.8-63.4,1.8-81.4c0-21.5-1-48.5-2.9-81.1c-2.9-50.3-4.5-77.3-4.6-81.1l-0.2-2.9c-0.2-4.1,2.3-6.1,7.3-6.1
		c12,0,30.2,0.2,54.6,0.7c24.3,0.5,42.6,0.7,54.8,0.7c13,0,32.6-1,58.7-2.9s45.7-2.9,58.7-2.9c8.1,0,12.7,3.3,13.7,10
		c0,7,0.3,17.5,1,31.5c0.3,3.6,1.4,10.5,3.2,20.8C380.4,169.4,381.2,176.3,381.2,181.2z"/>
	<path d="M632,311.6c0,16.4-5.3,25.8-15.9,28.1c-1.8,0.3-18.6,2.1-50.5,5.4c-19.2,2.1-47.9,4.6-85.9,7.6
		c2.3,10.6,9.2,18.6,20.8,24.2c9.4,4.6,20.2,6.8,32.2,6.8c14.5,0,29.1-3.9,43.7-11.7c6.2-3.9,12.4-7.8,18.6-11.7
		c3.4,1.6,9.2,9.9,17.2,24.9c8.1,15,12.1,24.5,12.1,28.6c0,1.1-1.2,3-3.7,5.6c-19.9,21.3-50.7,32-92.5,32c-38.7,0-70-11.3-93.8-33.9
		c-24.4-22.9-36.6-53.6-36.6-92c0-37.4,10.9-68.1,32.7-92c22.5-24.7,52.2-37.1,89.4-37.1c31.3,0,57.8,11.4,79.6,34.2
		C621.1,253.1,632,280.2,632,311.6z M546.5,296.7c0-10.1-3.6-19-10.7-26.6c-7.2-7.6-15.7-11.5-25.6-11.5c-10.3,0-18.7,4.3-25.4,12.9
		c-6.2,8-9.3,17.3-9.3,28.1c0,4.4,2.3,6.6,6.8,6.6c12,0,30.8-1.9,56.2-5.6C543.8,299.8,546.5,298.5,546.5,296.7z"/>
	<path d="M882.4,311.6c0,16.4-5.3,25.8-15.9,28.1c-1.8,0.3-18.6,2.1-50.5,5.4c-19.2,2.1-47.9,4.6-85.9,7.6
		c2.3,10.6,9.2,18.6,20.8,24.2c9.4,4.6,20.2,6.8,32.2,6.8c14.5,0,29.1-3.9,43.7-11.7c6.2-3.9,12.4-7.8,18.6-11.7
		c3.4,1.6,9.2,9.9,17.2,24.9c8.1,15,12.1,24.5,12.1,28.6c0,1.1-1.2,3-3.7,5.6c-19.9,21.3-50.7,32-92.5,32c-38.7,0-70-11.3-93.8-33.9
		c-24.4-22.9-36.6-53.6-36.6-92c0-37.4,10.9-68.1,32.7-92c22.5-24.7,52.2-37.1,89.4-37.1c31.3,0,57.8,11.4,79.6,34.2
		C871.5,253.1,882.4,280.2,882.4,311.6z M797,296.7c0-10.1-3.6-19-10.7-26.6c-7.2-7.6-15.7-11.5-25.6-11.5
		c-10.3,0-18.7,4.3-25.4,12.9c-6.2,8-9.3,17.3-9.3,28.1c0,4.4,2.3,6.6,6.8,6.6c12,0,30.8-1.9,56.2-5.6
		C794.3,299.8,797,298.5,797,296.7z"/>
	<path d="M998.2,297.2c0,44.4,0.2,78.5,0.5,102.3c0,3.7,0.2,10.2,0.7,19.3c0.5,8.3,0.7,14.7,0.7,19.3c0,3.4-2,5.5-6.1,6.1
		c-7.3,1.3-20.5,2-39.6,2c-19.5,0-32-0.7-37.4-2c-3.6-0.8-5.6-3-6.1-6.6c0-0.5,0-4,0-10.5c0-14.5,0.2-36.2,0.5-65.1
		c0.3-28.9,0.5-50.5,0.5-64.8c0-68.4,0.1-99.5,0.2-93.5c-0.5-36-2.5-67-6.1-93c-0.3-1.8-0.5-3.2-0.5-4.2c0-3.6,2.1-5.4,6.3-5.4h87.2
		c4.1,0,5.9,1.7,5.6,5.1l-0.2,4.4C1000.3,181,998.2,243.1,998.2,297.2z"/>
	<path d="M1129.3,375c0,16.3-4.2,33.9-12.5,52.7c-7.8,18.1-17.6,33.4-29.3,45.9c-16.6,17.9-30.8,29.4-42.5,34.4
		c-2.1,1-3.9,1.5-5.4,1.5c-1,0-6-3.4-15.1-10.1c-9.1-6.8-14-10.8-14.6-12.2c-0.6-1.4-1-3-1-4.8c0-1.8,5.2-9,15.6-21.6
		c10.4-12.6,16.1-25,17.1-37.2c0.3-3.7,0.3-8.5,0-14.4c-0.3-7.8-0.5-12.7-0.5-14.6c0-6.5,2.7-10.7,8.1-12.5
		c7.5-1.1,18.6-3.2,33.4-6.1c1.6-0.3,8.1-2.4,19.3-6.1c9.6-3.3,15.3-4.9,17.1-4.9C1125.9,365,1129.3,368.4,1129.3,375z
		 M1133.7,277.6c0,13.8-4.7,25.6-14.2,35.2c-9.4,9.6-21.1,14.4-34.9,14.4c-13.7,0-25.2-4.8-34.5-14.5c-9.4-9.7-14-21.4-14-35
		c0-13.7,4.7-25.3,14.2-34.8c9.4-9.5,20.9-14.3,34.4-14.3c13.7,0,25.3,4.8,34.8,14.3S1133.7,264,1133.7,277.6z"/>
	<path d="M1410,437.1c0,4.4-2.3,6.9-6.8,7.6c-4.6,0.6-16.4,1-35.6,1c-20.5,0-33.2-0.5-38.1-1.5s-7.3-4.3-7.3-10
		c0-7.6,0.2-19.2,0.7-34.7c0.5-15.5,0.7-27.1,0.7-34.9c0-6-0.2-15-0.5-27c-0.3-12-0.5-21-0.5-27c0-22.3-9.7-33.4-29.1-33.4
		c-6.3,0-13.8,2.8-22.2,8.3c-9.1,6.2-13.7,12.3-13.7,18.3v131.8c0,5.4-2.5,8.4-7.6,9c-5.7,0.6-17.3,1-34.9,1
		c-19,0-31.4-0.5-37.1-1.5c-5-0.8-7.6-3.5-7.6-8.1c0-12.7,0.1-31.8,0.2-57.4c0.2-25.6,0.2-44.8,0.2-57.6c0-40.5-3.2-72.3-9.5-95.5
		c-0.3-1.5-0.5-2.7-0.5-3.7c0-2.6,1.2-4.4,3.7-5.4c10.3-1.1,23.9-2.9,41-5.4c25.9-5,40.4-7.6,43.7-7.6c1.8,0,3.2,5.5,4.2,16.5
		s2.4,16.5,4.2,16.5c-1.8,0,7-5.7,26.2-17c19.3-11.3,36.2-17,50.7-17c20.7,0,37.9,4.9,51.8,14.6c15.5,11.2,23.2,26.9,23.2,46.9v77.9
		c0,10.6,0.1,26.4,0.2,47.5C1410,410.7,1410,426.5,1410,437.1z"/>
	<path d="M1694,380.7c0,46.4-9.8,79.7-29.3,99.9c-20.2,20.7-53.7,31-100.6,31c-13.7,0-32.3-2.2-55.9-6.6
		c-30.1-5.5-45.2-12-45.2-19.5c0-3.1,3.5-19,10.5-47.9c1.1-4.6,2.9-6.8,5.4-6.8c0.8,0.2,1.7,0.5,2.7,1
		c25.1,12.4,48.3,18.6,69.6,18.6c11.7,0,23.4-2.9,34.9-8.8c14-7,21-15.8,21-26.4v-16.4c-16.6,15.6-37.9,23.4-64,23.4
		c-30.6,0-55.7-11-75.4-33c-19-21.2-28.6-47.2-28.6-78.1c0-31.1,9.1-56.9,27.3-77.4c19-21.3,43.9-32,74.7-32
		c24.6,0,43.4,8.8,56.4,26.4c2.6,3.6,4.4,5.4,5.4,5.4c1.5,0,2.2-2.9,2.2-8.8c0-13,1.5-19.5,4.4-19.5c2.6,0,16.7,1.3,42.2,4
		c25.6,2.7,38.8,4.2,39.8,4.5c2.8,1,4.2,3.1,4.2,6.3c0,11.2-0.4,28-1.1,50.3c-0.7,22.3-1.1,39.1-1.1,50.3c0,6.7,0.1,16.7,0.2,30
		C1693.9,364,1694,374,1694,380.7z M1609.5,313c0-11.9-3.9-22.2-11.8-30.9c-7.9-8.7-17.8-13.1-29.7-13.1c-11.9,0-21.8,4.4-29.7,13.3
		c-7.9,8.9-11.8,19.2-11.8,31.1c0,11.9,4,22.1,12.1,30.8c8.1,8.6,17.9,12.9,29.4,12.9c11.9,0,21.8-4.4,29.7-13.2
		C1605.5,335.2,1609.5,324.9,1609.5,313z"/>
	<path d="M1879,246.6c0,1.6-1.2,3.8-3.7,6.6c-4.6-1.1-9.1-1.7-13.7-1.7c-9.6,0-17.7,2.1-24.2,6.3c-7.8,4.9-11.7,11.8-11.7,20.8
		c0,5.7,4.2,12.9,12.5,21.7c12.5,13.2,20.3,22.1,23.2,26.6c8.3,12.4,12.5,25.6,12.5,39.8c0,8.3-1.6,17.1-4.9,26.4
		c-3.7,10.3-8.5,17.7-14.2,22.5c-12,10.4-26.1,19.2-42.2,26.4c-17.4,7.5-33.4,11.2-48.1,11.2c-3.3,0-10.5-8.8-21.9-26.5
		c-11.3-17.7-17-28.4-17-32.3c0-1.5,0.9-2.4,2.7-2.7c11.4-2.1,22.9-4.2,34.4-6.3c14.3-4.6,21.5-12,21.5-22.5
		c0-7.2-4.2-15.5-12.5-24.9c-14.8-16.4-22.5-25.1-23.2-26.1c-8.3-11.7-12.5-24.1-12.5-37.1c0-24.4,12.4-45.2,37.1-62.3
		c22.1-15.1,45.8-22.7,71-22.7c2.6,0,9,8.8,19.3,26.2C1873.9,233.5,1879,243.7,1879,246.6z"/>
</g>
</svg>
