<?xml version="1.0" encoding="utf-8"?>
<!-- Generator: Adobe Illustrator 23.0.0, SVG Export Plug-In . SVG Version: 6.00 Build 0)  -->
<svg version="1.1" id="Camada_1" xmlns="http://www.w3.org/2000/svg" xmlns:xlink="http://www.w3.org/1999/xlink" x="0px" y="0px"
	 viewBox="0 0 2000 2000" style="enable-background:new 0 0 2000 2000;" xml:space="preserve">
<style type="text/css">
	.st0{fill:#D7D6D8;}
	.st1{fill:#ADADAD;}
	.st2{fill:#5C1889;}
</style>
<g>
	<g>
		<g>
			<polygon class="st0" points="600,0 0,218.4 0,2000 7.03,2000 600,1784.16 			"/>
		</g>
		<g>
			<polygon class="st0" points="2000,0 1400,218.4 1400,2000 1407.03,2000 2000,1784.16 			"/>
		</g>
		<g>
			<polygon class="st1" points="600,0 1400,218.4 1400,2000 1390.63,2000 600,1784.16 			"/>
		</g>
	</g>
	<g>
		<g>
			<path class="st0" d="M1105,790V606.25H732.03c-21.14,0-38.28,17.63-38.28,39.38v708.75c0,21.74,17.14,39.38,38.28,39.38h535.94
				c21.14,0,38.28-17.63,38.28-39.38V807.5H1122.5C1112.83,807.5,1105,799.67,1105,790z"/>
			<path class="st2" d="M1155.25,617.78c-7.18-7.39-16.91-11.53-27.07-11.53H1105l201.25,201.25v-18.09
				c0-10.44-4.03-20.46-11.21-27.84L1155.25,617.78z"/>
			<path class="st2" d="M1105,790c0,9.67,7.83,17.5,17.5,17.5h183.75L1105,606.25V790z"/>
			<path class="st2" d="M1177.43,575.31c-8.21-8.21-19.33-12.81-30.94-12.81H693.75c-24.16,0-43.75,19.59-43.75,43.75v787.5
				c0,24.16,19.59,43.75,43.75,43.75h612.5c24.16,0,43.75-19.59,43.75-43.75V766.01c0-11.6-4.61-22.73-12.81-30.94L1177.43,575.31z
				 M1306.25,807.5v546.88c0,21.74-17.14,39.38-38.28,39.38H732.03c-21.14,0-38.28-17.63-38.28-39.38V645.63
				c0-21.74,17.14-39.38,38.28-39.38H1105l0,0l0,0h23.18c10.15,0,19.89,4.15,27.07,11.53l139.79,143.78
				c7.17,7.39,11.21,17.4,11.21,27.84V807.5z"/>
		</g>
		<g>
			<rect x="725" y="1244" class="st2" width="550" height="50"/>
			<rect x="725" y="1076" class="st2" width="550" height="50"/>
			<rect x="725" y="908" class="st2" width="550" height="50"/>
		</g>
	</g>
</g>
</svg>
